<svg xmlns="http://www.w3.org/2000/svg" viewBox="0 0 100 100" width="100" height="100">
  <defs>
    <linearGradient id="logoGrad" x1="0%" y1="0%" x2="100%" y2="100%">
      <stop offset="0%" stop-color="#1e40af" />
      <stop offset="100%" stop-color="#60a5fa" />
    </linearGradient>
  </defs>
  <!-- Care+ Heart Ribbon -->
  <path d="M 50 82 C 28 65 14 50 14 34 C 14 20 25 12 37 12 C 44 12 50 16 50 16 C 50 16 56 12 63 12 C 75 12 86 20 86 34 C 86 50 72 65 50 82 Z" fill="none" stroke="url(#logoGrad)" stroke-width="7" stroke-linecap="round" stroke-linejoin="round"/>
  <!-- Inner Wave Loop -->
  <path d="M 23 42 C 28 28 42 28 47 38 C 52 48 65 48 70 34" fill="none" stroke="url(#logoGrad)" stroke-width="6" stroke-linecap="round"/>
  <!-- Blue Plus Symbol -->
  <path d="M 82 18 L 94 18 M 88 12 L 88 24" stroke="#3b82f6" stroke-width="4.5" stroke-linecap="round"/>
</svg>
